<?xml version="1.0" encoding="iso-8859-1"?>
<!-- Generator: Adobe Illustrator 19.0.0, SVG Export Plug-In . SVG Version: 6.00 Build 0)  -->
<svg version="1.1" id="Layer_1" xmlns="http://www.w3.org/2000/svg" xmlns:xlink="http://www.w3.org/1999/xlink" x="0px" y="0px"
	 viewBox="0 0 511.991 511.991" style="enable-background:new 0 0 511.991 511.991;" xml:space="preserve">
<path style="fill:#CCD1D9;" d="M126.1,260.719c-6.438,8.797-12.523,18.875-17.914,30.453c-2.484,5.328-0.18,11.672,5.156,14.156
	c1.453,0.672,2.984,1,4.492,1c4.016,0,7.859-2.281,9.664-6.156c5.125-11.016,11.133-20.984,17.976-29.891L126.1,260.719z"/>
<path style="fill:#E6E9ED;" d="M467.508,312.42c-4.266,0-8.312-2.594-9.938-6.826l-27.547-71.562
	c-2.109-5.5,0.625-11.656,6.125-13.766c5.484-2.125,11.641,0.625,13.766,6.109l27.547,71.578c2.109,5.484-0.625,11.639-6.125,13.764
	C470.086,312.201,468.789,312.42,467.508,312.42z"/>
<path style="fill:#CCD1D9;" d="M85.882,361.67c-5.883,0-10.648-4.766-10.648-10.641V229c0-5.891,4.766-10.656,10.648-10.656
	c5.882,0,10.656,4.765,10.656,10.656v122.029C96.538,356.904,91.765,361.67,85.882,361.67z"/>
<path style="fill:#ED5564;" d="M374.041,340.373H172.622c-5.109,0-9.507-3.641-10.46-8.656L150.982,273L27.907,212.251
	c-2.047-1-3.711-2.641-4.758-4.656L1.181,164.971c-1.742-3.375-1.547-7.438,0.516-10.64c2.062-3.203,5.672-5.047,9.484-4.875
	l212.433,10.593l169.192-32.546c3.469-0.656,7.047,0.438,9.547,2.938l63.905,63.921c3.594,3.578,4.156,9.188,1.359,13.406
	l-84.701,127.841C380.947,338.576,377.603,340.373,374.041,340.373z"/>
<path style="fill:#CCD1D9;" d="M126.327,260.719l-0.031,0.109L150.983,273l11.18,58.717c0.953,5.016,5.351,8.656,10.46,8.656
	h119.732c40.968-22.828,66.452-66.42,66.452-66.42l-138.49-96.764L126.327,260.719z"/>
<path style="fill:#434A54;" d="M160.451,361.67c5.882,0,10.656-4.766,10.656-10.656c0-5.875-4.773-10.641-10.656-10.641h-0.766
	c-0.852-5.938-2.398-11.641-4.562-17.031l0.664-0.375c5.094-2.953,6.844-9.469,3.898-14.562c-2.938-5.092-9.453-6.826-14.555-3.889
	l-0.688,0.391c-3.648-4.609-7.828-8.797-12.445-12.438l0.398-0.703c2.938-5.094,1.195-11.609-3.906-14.547
	c-5.094-2.938-11.609-1.203-14.547,3.906l-0.382,0.656c-5.398-2.156-11.102-3.703-17.023-4.562v-0.766
	c0-5.875-4.773-10.656-10.656-10.656c-5.883,0-10.648,4.781-10.648,10.656v0.766c-5.93,0.859-11.633,2.406-17.023,4.562
	l-0.383-0.656c-2.945-5.109-9.461-6.844-14.555-3.906s-6.843,9.453-3.898,14.547l0.398,0.703
	c-4.625,3.641-8.804,7.828-12.453,12.438l-0.688-0.391c-5.094-2.938-11.609-1.203-14.554,3.889
	c-2.938,5.109-1.195,11.625,3.898,14.562l0.664,0.375c-2.164,5.406-3.711,11.109-4.562,17.031h-0.766
	c-5.883,0-10.648,4.766-10.648,10.656c0,5.875,4.766,10.641,10.648,10.641h0.766c0.851,5.938,2.398,11.641,4.562,17.031
	l-0.664,0.375c-5.093,2.953-6.835,9.469-3.898,14.562c1.976,3.406,5.554,5.328,9.234,5.328c1.812,0,3.641-0.469,5.32-1.438
	l0.688-0.391c3.648,4.625,7.828,8.797,12.453,12.453l-0.398,0.688c-2.945,5.092-1.195,11.607,3.898,14.545
	c1.68,0.969,3.508,1.438,5.312,1.438c3.688,0,7.266-1.922,9.242-5.328l0.383-0.672c5.39,2.172,11.093,3.719,17.023,4.562v0.766
	c0,5.891,4.766,10.656,10.648,10.656c5.882,0,10.656-4.766,10.656-10.656v-0.766c5.922-0.844,11.625-2.391,17.023-4.562l0.382,0.672
	c1.969,3.406,5.555,5.328,9.234,5.328c1.805,0,3.641-0.469,5.312-1.438c5.102-2.938,6.844-9.453,3.906-14.545l-0.398-0.688
	c4.617-3.656,8.804-7.828,12.445-12.453l0.695,0.391c1.672,0.969,3.508,1.438,5.312,1.438c3.68,0,7.266-1.922,9.234-5.328
	c2.945-5.109,1.195-11.625-3.898-14.562l-0.664-0.375c2.164-5.391,3.719-11.094,4.562-17.031H160.451z"/>
<path style="fill:#F5F7FA;" d="M93.413,343.498c4.164,4.156,4.164,10.891,0,15.062c-4.156,4.156-10.906,4.156-15.062,0
	c-4.164-4.172-4.164-10.906,0-15.062C82.507,339.326,89.257,339.326,93.413,343.498z"/>
<path style="fill:#434A54;" d="M501.335,361.67c5.891,0,10.656-4.766,10.656-10.656c0-5.875-4.766-10.641-10.656-10.641h-0.766
	c-0.844-5.938-2.391-11.641-4.562-17.031l0.672-0.375c5.094-2.953,6.844-9.469,3.891-14.562c-2.938-5.092-9.452-6.826-14.546-3.889
	l-0.688,0.391c-3.641-4.609-7.828-8.797-12.453-12.438l0.406-0.703c2.938-5.094,1.188-11.609-3.906-14.547
	s-11.609-1.203-14.547,3.906l-0.391,0.656c-5.391-2.156-11.094-3.703-17.016-4.562v-0.766c0-5.875-4.781-10.656-10.656-10.656
	c-5.891,0-10.655,4.781-10.655,10.656v0.766c-5.922,0.859-11.625,2.406-17.016,4.562l-0.391-0.656
	c-2.938-5.109-9.452-6.844-14.546-3.906s-6.844,9.453-3.906,14.547l0.406,0.703c-4.625,3.641-8.812,7.828-12.453,12.438
	l-0.688-0.391c-5.094-2.938-11.609-1.203-14.562,3.889c-2.938,5.109-1.188,11.625,3.906,14.562l0.656,0.375
	c-2.156,5.406-3.703,11.109-4.562,17.031h-0.766c-5.875,0-10.641,4.766-10.641,10.656c0,5.875,4.766,10.641,10.641,10.641h0.766
	c0.859,5.938,2.406,11.641,4.562,17.031l-0.656,0.375c-5.094,2.953-6.844,9.469-3.906,14.562c1.984,3.406,5.562,5.328,9.234,5.328
	c1.812,0,3.641-0.469,5.328-1.438l0.688-0.391c3.641,4.625,7.828,8.797,12.453,12.453l-0.406,0.688
	c-2.938,5.092-1.188,11.607,3.906,14.545c1.672,0.969,3.5,1.438,5.312,1.438c3.687,0,7.265-1.922,9.233-5.328l0.391-0.672
	c5.391,2.172,11.094,3.719,17.016,4.562v0.766c0,5.891,4.765,10.656,10.655,10.656c5.875,0,10.656-4.766,10.656-10.656v-0.766
	c5.922-0.844,11.625-2.391,17.016-4.562l0.391,0.672c1.969,3.406,5.547,5.328,9.234,5.328c1.797,0,3.641-0.469,5.312-1.438
	c5.094-2.938,6.844-9.453,3.906-14.545l-0.406-0.688c4.625-3.656,8.812-7.828,12.453-12.453l0.688,0.391
	c1.688,0.969,3.516,1.438,5.312,1.438c3.687,0,7.265-1.922,9.233-5.328c2.953-5.109,1.203-11.625-3.891-14.562l-0.672-0.375
	c2.172-5.391,3.719-11.094,4.578-17.031H501.335z"/>
<path style="fill:#CCD1D9;" d="M288.293,106.878c-3.984,0-7.812-2.25-9.625-6.093c-2.531-5.312-0.25-11.672,5.062-14.188
	c0.531-0.25,13.077-6.156,28.358-9.141c15.64-3.062,37.124-3.516,50.608,11.703c3.906,4.406,3.5,11.141-0.906,15.031
	c-4.406,3.906-11.141,3.5-15.047-0.906c-11.703-13.203-43.624-2.297-53.89,2.562C291.37,106.55,289.824,106.878,288.293,106.878z"/>
<path style="fill:#F5F7FA;" d="M434.305,343.498c4.156,4.156,4.156,10.891,0,15.062c-4.156,4.156-10.906,4.156-15.062,0
	c-4.155-4.172-4.155-10.906,0-15.062C423.398,339.326,430.148,339.326,434.305,343.498z"/>
<path style="fill:#434A54;" d="M352.197,156.814c-5.016,0-9.484-3.546-10.453-8.64c-0.094-0.5-2.328-12.281-3.156-24.781
	c-0.969-14.921-0.422-32.624,12.594-37.218c9.734-3.438,18.641,4.297,21.562,6.844c4.312,3.734,9.234,9.109,14.641,15.984
	c8.858,11.25,16.14,22.812,16.452,23.296c3.125,4.984,1.625,11.562-3.344,14.688c-4.984,3.141-11.562,1.641-14.702-3.344
	c-0.047-0.094-25.531-12.016-23.125,0.516c1.109,5.781-2.672,11.359-8.453,12.468C353.525,156.752,352.853,156.814,352.197,156.814z
	"/>
<path style="fill:#DA4453;" d="M467.617,207.767c2.797-4.218,2.234-9.828-1.359-13.406l-63.905-63.921
	c-2.5-2.5-6.078-3.594-9.547-2.938l-85.748,16.5l-8.016,56.39c-0.469,3.312,0.656,6.656,3.016,9.031l21.312,21.296
	c2,2,4.703,3.125,7.531,3.125h19.484l81.107,28.421L467.617,207.767z"/>
<path style="fill:#434A54;" d="M224.528,192.048c24.664,0.375,52.593-7.828,76.67-22.5c14.905-9.078,27.14-19.905,35.64-31.28
	l-113.224,21.781l-94.803-4.734C153.842,171.001,192.63,191.579,224.528,192.048z"/>
<path style="fill:#CCD1D9;" d="M453.758,228.672l13.859-20.906c2.797-4.218,2.234-9.828-1.359-13.406l-63.905-63.921
	c-2.5-2.5-6.078-3.594-9.547-2.938l-37.202,7.156L453.758,228.672z"/>
<path style="fill:#F5F7FA;" d="M213.716,308.404c-17.625,0-31.96-14.326-31.96-31.951s14.335-31.953,31.96-31.953
	s31.96,14.328,31.96,31.953S231.34,308.404,213.716,308.404z"/>
<path style="fill:#E6E9ED;" d="M306.464,237.375l-31.233,94.154l-1.625-117.122l-21.523-15.031l1.953,140.997h38.319
	c1-0.562,1.984-1.125,2.953-1.703l29.374-88.56L306.464,237.375z"/>
<g>
</g>
<g>
</g>
<g>
</g>
<g>
</g>
<g>
</g>
<g>
</g>
<g>
</g>
<g>
</g>
<g>
</g>
<g>
</g>
<g>
</g>
<g>
</g>
<g>
</g>
<g>
</g>
<g>
</g>
</svg>
